<svg viewBox="0 0 1100 750" xmlns="http://www.w3.org/2000/svg" font-family="Consolas, monospace" font-size="11">
  <defs>
    <marker id="arr" markerWidth="8" markerHeight="6" refX="8" refY="3" orient="auto"><path d="M0,0 L8,3 L0,6" fill="#334155"/></marker>
    <marker id="arr-red" markerWidth="8" markerHeight="6" refX="8" refY="3" orient="auto"><path d="M0,0 L8,3 L0,6" fill="#dc2626"/></marker>
    <marker id="arr-grn" markerWidth="8" markerHeight="6" refX="8" refY="3" orient="auto"><path d="M0,0 L8,3 L0,6" fill="#16a34a"/></marker>
    <marker id="arr-blu" markerWidth="8" markerHeight="6" refX="8" refY="3" orient="auto"><path d="M0,0 L8,3 L0,6" fill="#2563eb"/></marker>
  </defs>
  <rect width="1100" height="750" fill="#0f172a" rx="8"/>
  <text x="550" y="35" text-anchor="middle" fill="#f8fafc" font-size="18" font-weight="bold">PROJECT ARGUS — System Block Diagram</text>
  <text x="550" y="52" text-anchor="middle" fill="#94a3b8" font-size="11">HAPS Hypersonic Missile Detection Platform — Electronics Architecture</text>

  <!-- POWER SECTION -->
  <rect x="30" y="70" width="320" height="200" rx="6" fill="none" stroke="#f59e0b" stroke-width="1.5" stroke-dasharray="6,3"/>
  <text x="40" y="88" fill="#f59e0b" font-size="13" font-weight="bold">POWER SYSTEM</text>

  <rect x="45" y="100" width="130" height="45" rx="4" fill="#422006" stroke="#f59e0b"/>
  <text x="110" y="118" text-anchor="middle" fill="#fbbf24" font-size="10" font-weight="bold">Solar Array</text>
  <text x="110" y="132" text-anchor="middle" fill="#fcd34d" font-size="9">GaAs Cells · 180W pk</text>

  <rect x="200" y="100" width="130" height="45" rx="4" fill="#422006" stroke="#f59e0b"/>
  <text x="265" y="118" text-anchor="middle" fill="#fbbf24" font-size="10" font-weight="bold">MPPT Controller</text>
  <text x="265" y="132" text-anchor="middle" fill="#fcd34d" font-size="9">SPV1050 · 98% eff</text>

  <rect x="45" y="160" width="130" height="45" rx="4" fill="#422006" stroke="#f59e0b"/>
  <text x="110" y="178" text-anchor="middle" fill="#fbbf24" font-size="10" font-weight="bold">Battery Pack</text>
  <text x="110" y="192" text-anchor="middle" fill="#fcd34d" font-size="9">4S LiPo · 14.8V · 10Ah</text>

  <rect x="200" y="160" width="130" height="45" rx="4" fill="#422006" stroke="#f59e0b"/>
  <text x="265" y="178" text-anchor="middle" fill="#fbbf24" font-size="10" font-weight="bold">Power Distribution</text>
  <text x="265" y="192" text-anchor="middle" fill="#fcd34d" font-size="9">5V / 3.3V / 1.8V rails</text>

  <rect x="120" y="220" width="130" height="40" rx="4" fill="#422006" stroke="#f59e0b"/>
  <text x="185" y="238" text-anchor="middle" fill="#fbbf24" font-size="10" font-weight="bold">Motor ESC ×2</text>
  <text x="185" y="250" text-anchor="middle" fill="#fcd34d" font-size="9">BLDC · 200W each</text>

  <line x1="175" y1="122" x2="200" y2="122" stroke="#f59e0b" marker-end="url(#arr)"/>
  <line x1="265" y1="145" x2="265" y2="160" stroke="#f59e0b" marker-end="url(#arr)"/>
  <line x1="175" y1="182" x2="200" y2="182" stroke="#f59e0b" marker-end="url(#arr)"/>
  <line x1="265" y1="205" x2="265" y2="220" stroke="#f59e0b" marker-end="url(#arr)"/>

  <!-- EDGE COMPUTE -->
  <rect x="390" y="70" width="320" height="120" rx="6" fill="none" stroke="#8b5cf6" stroke-width="1.5" stroke-dasharray="6,3"/>
  <text x="400" y="88" fill="#8b5cf6" font-size="13" font-weight="bold">EDGE COMPUTE</text>

  <rect x="405" y="100" width="145" height="75" rx="4" fill="#2e1065" stroke="#8b5cf6"/>
  <text x="477" y="120" text-anchor="middle" fill="#c4b5fd" font-size="11" font-weight="bold">Jetson Orin Nano</text>
  <text x="477" y="135" text-anchor="middle" fill="#a78bfa" font-size="9">40 TOPS · 15W TDP</text>
  <text x="477" y="148" text-anchor="middle" fill="#a78bfa" font-size="9">8GB LPDDR5</text>
  <text x="477" y="161" text-anchor="middle" fill="#a78bfa" font-size="9">Sensor Fusion + ML</text>

  <rect x="565" y="100" width="130" height="35" rx="4" fill="#2e1065" stroke="#8b5cf6"/>
  <text x="630" y="118" text-anchor="middle" fill="#c4b5fd" font-size="10" font-weight="bold">NVMe SSD</text>
  <text x="630" y="130" text-anchor="middle" fill="#a78bfa" font-size="9">256GB · Data logging</text>

  <rect x="565" y="142" width="130" height="35" rx="4" fill="#2e1065" stroke="#8b5cf6"/>
  <text x="630" y="160" text-anchor="middle" fill="#c4b5fd" font-size="10" font-weight="bold">Heatsink / TEC</text>
  <text x="630" y="172" text-anchor="middle" fill="#a78bfa" font-size="9">Stratospheric cooling</text>

  <line x1="550" y1="125" x2="565" y2="125" stroke="#8b5cf6" marker-end="url(#arr)"/>
  <line x1="550" y1="158" x2="565" y2="158" stroke="#8b5cf6" marker-end="url(#arr)"/>

  <!-- SENSORS -->
  <rect x="30" y="290" width="680" height="210" rx="6" fill="none" stroke="#22d3ee" stroke-width="1.5" stroke-dasharray="6,3"/>
  <text x="40" y="310" fill="#22d3ee" font-size="13" font-weight="bold">SENSOR SUITE — Tiered Fusion Cascade</text>

  <!-- Tier 1 -->
  <rect x="45" y="325" width="200" height="80" rx="4" fill="#042f2e" stroke="#14b8a6"/>
  <text x="145" y="340" text-anchor="middle" fill="#5eead4" font-size="10" font-weight="bold">TIER 1 — Always On (0.5W)</text>
  <text x="145" y="358" text-anchor="middle" fill="#99f6e4" font-size="10">Infrasound MEMS ×12</text>
  <text x="145" y="372" text-anchor="middle" fill="#99f6e4" font-size="9">ICS-40730 · I²S TDM 8-ch</text>
  <text x="145" y="386" text-anchor="middle" fill="#99f6e4" font-size="9">+ 4 wingtip/boom mics</text>
  <text x="145" y="400" text-anchor="middle" fill="#5eead4" font-size="9">Shockwave TDOA detection</text>

  <!-- Tier 2 -->
  <rect x="265" y="325" width="200" height="80" rx="4" fill="#1e1b4b" stroke="#6366f1"/>
  <text x="365" y="340" text-anchor="middle" fill="#a5b4fc" font-size="10" font-weight="bold">TIER 2 — Wake-on-Detect (2W)</text>
  <text x="365" y="358" text-anchor="middle" fill="#c7d2fe" font-size="10">SWIR InGaAs ×2</text>
  <text x="365" y="372" text-anchor="middle" fill="#c7d2fe" font-size="9">FLIR Lepton 3.5 · SPI VoSPI</text>
  <text x="365" y="386" text-anchor="middle" fill="#c7d2fe" font-size="9">160×120 · 8-14µm</text>
  <text x="365" y="400" text-anchor="middle" fill="#a5b4fc" font-size="9">Thermal plume tracking</text>

  <!-- Tier 3 -->
  <rect x="485" y="325" width="210" height="80" rx="4" fill="#1e3a5f" stroke="#3b82f6"/>
  <text x="590" y="340" text-anchor="middle" fill="#93c5fd" font-size="10" font-weight="bold">TIER 3 — Cued (3W)</text>
  <text x="590" y="358" text-anchor="middle" fill="#bfdbfe" font-size="10">EO Camera (IMX477)</text>
  <text x="590" y="372" text-anchor="middle" fill="#bfdbfe" font-size="9">12.3MP · CSI-2 · f/1.4</text>
  <text x="590" y="386" text-anchor="middle" fill="#bfdbfe" font-size="9">+ Ricoh Theta Z1 (360°)</text>
  <text x="590" y="400" text-anchor="middle" fill="#93c5fd" font-size="9">Visual ID + custody</text>

  <!-- Cascade arrows -->
  <line x1="245" y1="365" x2="265" y2="365" stroke="#22d3ee" stroke-width="2" marker-end="url(#arr)"/>
  <line x1="465" y1="365" x2="485" y2="365" stroke="#22d3ee" stroke-width="2" marker-end="url(#arr)"/>
  <text x="255" y="358" fill="#22d3ee" font-size="8" text-anchor="middle">▸</text>
  <text x="475" y="358" fill="#22d3ee" font-size="8" text-anchor="middle">▸</text>

  <!-- Support sensors -->
  <rect x="45" y="420" width="145" height="55" rx="4" fill="#1a1a2e" stroke="#64748b"/>
  <text x="117" y="438" text-anchor="middle" fill="#cbd5e1" font-size="10" font-weight="bold">Pitot + Pressure</text>
  <text x="117" y="452" text-anchor="middle" fill="#94a3b8" font-size="9">BMP390 · I²C · AoA</text>
  <text x="117" y="464" text-anchor="middle" fill="#94a3b8" font-size="9">Nose + Fin ports</text>

  <rect x="205" y="420" width="145" height="55" rx="4" fill="#1a1a2e" stroke="#64748b"/>
  <text x="277" y="438" text-anchor="middle" fill="#cbd5e1" font-size="10" font-weight="bold">IMU / Mag</text>
  <text x="277" y="452" text-anchor="middle" fill="#94a3b8" font-size="9">ICM-42688 · SPI</text>
  <text x="277" y="464" text-anchor="middle" fill="#94a3b8" font-size="9">9-DOF AHRS</text>

  <rect x="365" y="420" width="145" height="55" rx="4" fill="#1a1a2e" stroke="#64748b"/>
  <text x="437" y="438" text-anchor="middle" fill="#cbd5e1" font-size="10" font-weight="bold">GPS / GNSS</text>
  <text x="437" y="452" text-anchor="middle" fill="#94a3b8" font-size="9">u-blox NEO-M9N</text>
  <text x="437" y="464" text-anchor="middle" fill="#94a3b8" font-size="9">UART · 25Hz · L1/L5</text>

  <!-- Data flow arrows sensors→compute -->
  <line x1="145" y1="325" x2="445" y2="190" stroke="#22d3ee" stroke-dasharray="4,2" marker-end="url(#arr)"/>
  <line x1="365" y1="325" x2="460" y2="190" stroke="#6366f1" stroke-dasharray="4,2" marker-end="url(#arr)"/>
  <line x1="590" y1="325" x2="500" y2="190" stroke="#3b82f6" stroke-dasharray="4,2" marker-end="url(#arr)"/>

  <!-- COMMS -->
  <rect x="750" y="70" width="320" height="200" rx="6" fill="none" stroke="#22c55e" stroke-width="1.5" stroke-dasharray="6,3"/>
  <text x="760" y="88" fill="#22c55e" font-size="13" font-weight="bold">COMMUNICATIONS</text>

  <rect x="765" y="100" width="140" height="50" rx="4" fill="#052e16" stroke="#22c55e"/>
  <text x="835" y="118" text-anchor="middle" fill="#86efac" font-size="10" font-weight="bold">LoRa Mesh</text>
  <text x="835" y="132" text-anchor="middle" fill="#bbf7d0" font-size="9">RFM95W · 915MHz</text>
  <text x="835" y="144" text-anchor="middle" fill="#bbf7d0" font-size="9">SPI · Swarm P2P</text>

  <rect x="920" y="100" width="140" height="50" rx="4" fill="#052e16" stroke="#22c55e"/>
  <text x="990" y="118" text-anchor="middle" fill="#86efac" font-size="10" font-weight="bold">Iridium SBD</text>
  <text x="990" y="132" text-anchor="middle" fill="#bbf7d0" font-size="9">9603N · UART</text>
  <text x="990" y="144" text-anchor="middle" fill="#bbf7d0" font-size="9">Global satellite uplink</text>

  <rect x="765" y="165" width="140" height="50" rx="4" fill="#052e16" stroke="#22c55e"/>
  <text x="835" y="183" text-anchor="middle" fill="#86efac" font-size="10" font-weight="bold">GPS Antenna</text>
  <text x="835" y="197" text-anchor="middle" fill="#bbf7d0" font-size="9">Active patch · SMA</text>
  <text x="835" y="209" text-anchor="middle" fill="#bbf7d0" font-size="9">u-blox NEO-M9N</text>

  <rect x="920" y="165" width="140" height="50" rx="4" fill="#052e16" stroke="#22c55e"/>
  <text x="990" y="183" text-anchor="middle" fill="#86efac" font-size="10" font-weight="bold">SatCom Dome</text>
  <text x="990" y="197" text-anchor="middle" fill="#bbf7d0" font-size="9">L-band patch</text>
  <text x="990" y="209" text-anchor="middle" fill="#bbf7d0" font-size="9">Fuselage top-mount</text>

  <!-- Comms→Compute arrows -->
  <line x1="765" y1="135" x2="710" y2="140" stroke="#22c55e" stroke-dasharray="4,2" marker-end="url(#arr-grn)"/>

  <!-- DATA FLOW LEGEND -->
  <rect x="750" y="290" width="320" height="210" rx="6" fill="none" stroke="#64748b" stroke-width="1" stroke-dasharray="6,3"/>
  <text x="760" y="310" fill="#e2e8f0" font-size="13" font-weight="bold">SENSOR FUSION CASCADE</text>

  <rect x="770" y="325" width="280" height="30" rx="3" fill="#042f2e" stroke="#14b8a6"/>
  <text x="910" y="345" text-anchor="middle" fill="#5eead4" font-size="10">T1: Infrasound detects shockwave → ALERT</text>

  <line x1="910" y1="355" x2="910" y2="370" stroke="#22d3ee" marker-end="url(#arr)"/>

  <rect x="770" y="370" width="280" height="30" rx="3" fill="#1e1b4b" stroke="#6366f1"/>
  <text x="910" y="390" text-anchor="middle" fill="#a5b4fc" font-size="10">T2: SWIR powers on → thermal confirm</text>

  <line x1="910" y1="400" x2="910" y2="415" stroke="#22d3ee" marker-end="url(#arr)"/>

  <rect x="770" y="415" width="280" height="30" rx="3" fill="#1e3a5f" stroke="#3b82f6"/>
  <text x="910" y="435" text-anchor="middle" fill="#93c5fd" font-size="10">T3: EO slews → visual ID + track</text>

  <line x1="910" y1="445" x2="910" y2="460" stroke="#22d3ee" marker-end="url(#arr)"/>

  <rect x="770" y="460" width="280" height="30" rx="3" fill="#052e16" stroke="#22c55e"/>
  <text x="910" y="480" text-anchor="middle" fill="#86efac" font-size="10">Uplink: LoRa swarm + Iridium SBD</text>

  <!-- POWER BUDGET -->
  <rect x="30" y="520" width="500" height="210" rx="6" fill="none" stroke="#f59e0b" stroke-width="1" stroke-dasharray="6,3"/>
  <text x="40" y="540" fill="#f59e0b" font-size="13" font-weight="bold">POWER BUDGET (Cruise / Alert)</text>

  <text x="50" y="565" fill="#94a3b8" font-size="10">Subsystem</text>
  <text x="300" y="565" fill="#94a3b8" font-size="10" text-anchor="end">Cruise</text>
  <text x="420" y="565" fill="#94a3b8" font-size="10" text-anchor="end">Alert</text>
  <line x1="45" y1="572" x2="480" y2="572" stroke="#334155"/>

  <text x="50" y="590" fill="#e2e8f0" font-size="10">Jetson Orin Nano (idle/active)</text>
  <text x="300" y="590" fill="#fcd34d" font-size="10" text-anchor="end">7W</text>
  <text x="420" y="590" fill="#f87171" font-size="10" text-anchor="end">15W</text>

  <text x="50" y="608" fill="#e2e8f0" font-size="10">Infrasound MEMS ×12 (always on)</text>
  <text x="300" y="608" fill="#fcd34d" font-size="10" text-anchor="end">0.5W</text>
  <text x="420" y="608" fill="#fcd34d" font-size="10" text-anchor="end">0.5W</text>

  <text x="50" y="626" fill="#e2e8f0" font-size="10">SWIR Lepton ×2 (off/on)</text>
  <text x="300" y="626" fill="#fcd34d" font-size="10" text-anchor="end">0W</text>
  <text x="420" y="626" fill="#f87171" font-size="10" text-anchor="end">1.6W</text>

  <text x="50" y="644" fill="#e2e8f0" font-size="10">EO Camera + 360 (off/on)</text>
  <text x="300" y="644" fill="#fcd34d" font-size="10" text-anchor="end">0W</text>
  <text x="420" y="644" fill="#f87171" font-size="10" text-anchor="end">3W</text>

  <text x="50" y="662" fill="#e2e8f0" font-size="10">Comms (LoRa + Iridium)</text>
  <text x="300" y="662" fill="#fcd34d" font-size="10" text-anchor="end">1.5W</text>
  <text x="420" y="662" fill="#f87171" font-size="10" text-anchor="end">5W</text>

  <text x="50" y="680" fill="#e2e8f0" font-size="10">Nav (GPS + IMU + Baro)</text>
  <text x="300" y="680" fill="#fcd34d" font-size="10" text-anchor="end">0.8W</text>
  <text x="420" y="680" fill="#fcd34d" font-size="10" text-anchor="end">0.8W</text>

  <text x="50" y="698" fill="#e2e8f0" font-size="10">Propulsion (cruise motors ×2)</text>
  <text x="300" y="698" fill="#fcd34d" font-size="10" text-anchor="end">60W</text>
  <text x="420" y="698" fill="#fcd34d" font-size="10" text-anchor="end">60W</text>

  <line x1="45" y1="706" x2="480" y2="706" stroke="#334155"/>
  <text x="50" y="722" fill="#f8fafc" font-size="11" font-weight="bold">TOTAL</text>
  <text x="300" y="722" fill="#22c55e" font-size="11" font-weight="bold" text-anchor="end">69.8W</text>
  <text x="420" y="722" fill="#f87171" font-size="11" font-weight="bold" text-anchor="end">85.9W</text>
  <text x="470" y="722" fill="#94a3b8" font-size="9">/ 180W solar</text>

  <!-- INTERFACES LEGEND -->
  <rect x="560" y="520" width="510" height="210" rx="6" fill="none" stroke="#64748b" stroke-width="1" stroke-dasharray="6,3"/>
  <text x="570" y="540" fill="#e2e8f0" font-size="13" font-weight="bold">INTERFACE PROTOCOLS</text>

  <text x="580" y="568" fill="#22d3ee" font-size="10">■ I²S TDM</text>
  <text x="670" y="568" fill="#94a3b8" font-size="9">8-channel MEMS mics → Jetson (BCLK/LRCK/DOUT)</text>

  <text x="580" y="590" fill="#6366f1" font-size="10">■ SPI</text>
  <text x="670" y="590" fill="#94a3b8" font-size="9">FLIR Lepton VoSPI · LoRa RFM95W · IMU ICM-42688</text>

  <text x="580" y="612" fill="#3b82f6" font-size="10">■ CSI-2</text>
  <text x="670" y="612" fill="#94a3b8" font-size="9">IMX477 EO camera → Jetson (2-lane MIPI)</text>

  <text x="580" y="634" fill="#22c55e" font-size="10">■ UART</text>
  <text x="670" y="634" fill="#94a3b8" font-size="9">GPS NEO-M9N · Iridium 9603N (115200 baud)</text>

  <text x="580" y="656" fill="#f59e0b" font-size="10">■ I²C</text>
  <text x="670" y="656" fill="#94a3b8" font-size="9">BMP390 baro/pressure · power monitoring INA219</text>

  <text x="580" y="678" fill="#ec4899" font-size="10">■ USB 2.0</text>
  <text x="670" y="678" fill="#94a3b8" font-size="9">Ricoh Theta Z1 360° camera</text>

  <text x="580" y="700" fill="#f87171" font-size="10">■ PWM</text>
  <text x="670" y="700" fill="#94a3b8" font-size="9">ESC ×2 motor drive (DShot600)</text>

  <text x="580" y="722" fill="#a78bfa" font-size="10">■ GPIO</text>
  <text x="670" y="722" fill="#94a3b8" font-size="9">Sensor power gates · status LEDs · watchdog</text>
</svg>
